<mxfile host="app.diagrams.net" agent="Mozilla/5.0 (Windows NT 10.0; Win64; x64) AppleWebKit/537.36 (KHTML, like Gecko) Chrome/129.0.0.0 Safari/537.36" version="24.8.0">
  <diagram name="Page-1" id="BrH0A4GCe17tVJX2Lnir">
    <mxGraphModel dx="1050" dy="556" grid="1" gridSize="10" guides="1" tooltips="1" connect="1" arrows="1" fold="1" page="1" pageScale="1" pageWidth="850" pageHeight="1100" math="0" shadow="0">
      <root>
        <mxCell id="0" />
        <mxCell id="1" parent="0" />
        <mxCell id="p--BlvTsHpz5zoIBBfOx-2" value="" style="whiteSpace=wrap;html=1;aspect=fixed;" vertex="1" parent="1">
          <mxGeometry x="50" y="110" width="410" height="410" as="geometry" />
        </mxCell>
        <mxCell id="p--BlvTsHpz5zoIBBfOx-3" value="Docker" style="text;html=1;align=center;verticalAlign=middle;resizable=0;points=[];autosize=1;strokeColor=none;fillColor=none;" vertex="1" parent="1">
          <mxGeometry x="240" y="490" width="60" height="30" as="geometry" />
        </mxCell>
        <mxCell id="p--BlvTsHpz5zoIBBfOx-4" value="service-2-Airflow" style="rounded=0;whiteSpace=wrap;html=1;" vertex="1" parent="1">
          <mxGeometry x="230" y="240" width="150" height="70" as="geometry" />
        </mxCell>
        <mxCell id="p--BlvTsHpz5zoIBBfOx-5" value="service-1-fastlapi" style="rounded=1;whiteSpace=wrap;html=1;" vertex="1" parent="1">
          <mxGeometry x="230" y="130" width="130" height="60" as="geometry" />
        </mxCell>
        <mxCell id="p--BlvTsHpz5zoIBBfOx-6" value="Kubernetes" style="whiteSpace=wrap;html=1;aspect=fixed;" vertex="1" parent="1">
          <mxGeometry x="560" y="160" width="80" height="80" as="geometry" />
        </mxCell>
        <mxCell id="p--BlvTsHpz5zoIBBfOx-7" value="MysqlDb" style="shape=cylinder3;whiteSpace=wrap;html=1;boundedLbl=1;backgroundOutline=1;size=15;" vertex="1" parent="1">
          <mxGeometry x="585" y="30" width="60" height="70" as="geometry" />
        </mxCell>
        <mxCell id="p--BlvTsHpz5zoIBBfOx-10" value="" style="group;" vertex="1" connectable="0" parent="1">
          <mxGeometry x="390" y="180" width="50" height="54" as="geometry" />
        </mxCell>
        <mxCell id="p--BlvTsHpz5zoIBBfOx-8" value="" style="html=1;shape=mxgraph.basic.isocube;isoAngle=15;fillColor=#a20025;fontColor=#ffffff;strokeColor=#6F0000;" vertex="1" parent="p--BlvTsHpz5zoIBBfOx-10">
          <mxGeometry width="50" height="38.028169014084504" as="geometry" />
        </mxCell>
        <mxCell id="p--BlvTsHpz5zoIBBfOx-9" value="&lt;font color=&quot;#ff0000&quot;&gt;RabbitMQ&lt;/font&gt;" style="text;html=1;align=center;verticalAlign=middle;resizable=0;points=[];autosize=1;strokeColor=none;fillColor=none;" vertex="1" parent="p--BlvTsHpz5zoIBBfOx-10">
          <mxGeometry x="5" y="42.59154929577464" width="80" height="30" as="geometry" />
        </mxCell>
        <mxCell id="p--BlvTsHpz5zoIBBfOx-16" value="" style="edgeStyle=orthogonalEdgeStyle;rounded=0;orthogonalLoop=1;jettySize=auto;html=1;" edge="1" parent="1" source="p--BlvTsHpz5zoIBBfOx-13" target="p--BlvTsHpz5zoIBBfOx-5">
          <mxGeometry relative="1" as="geometry" />
        </mxCell>
        <mxCell id="p--BlvTsHpz5zoIBBfOx-17" style="edgeStyle=orthogonalEdgeStyle;rounded=0;orthogonalLoop=1;jettySize=auto;html=1;entryX=0;entryY=0.5;entryDx=0;entryDy=0;" edge="1" parent="1" source="p--BlvTsHpz5zoIBBfOx-13" target="p--BlvTsHpz5zoIBBfOx-4">
          <mxGeometry relative="1" as="geometry" />
        </mxCell>
        <mxCell id="p--BlvTsHpz5zoIBBfOx-13" value="client" style="whiteSpace=wrap;html=1;aspect=fixed;" vertex="1" parent="1">
          <mxGeometry x="70" y="130" width="80" height="80" as="geometry" />
        </mxCell>
        <mxCell id="p--BlvTsHpz5zoIBBfOx-15" value="Api Gateway" style="rounded=0;whiteSpace=wrap;html=1;" vertex="1" parent="1">
          <mxGeometry x="130" y="370" width="60" height="78" as="geometry" />
        </mxCell>
      </root>
    </mxGraphModel>
  </diagram>
</mxfile>
